<?xml version="1.0" standalone="no"?>
<!DOCTYPE svg PUBLIC "-//W3C//DTD SVG 1.1//EN" "http://www.w3.org/Graphics/SVG/1.1/DTD/svg11.dtd" >
<svg xmlns="http://www.w3.org/2000/svg" xmlns:xlink="http://www.w3.org/1999/xlink" version="1.1">
<metadata></metadata>
<defs>
<font id="dystopianbold" horiz-adv-x="654" >
<font-face units-per-em="1000" ascent="844" descent="-156" />
<missing-glyph horiz-adv-x="210" />
<glyph unicode="&#xfb01;" horiz-adv-x="626" d="M193 0h-126v709h272v-117h-146v-158h134v-118h-134v-316zM445.5 659.5q-21.5 21.5 -21.5 51.5t21.5 51t51.5 21q29 0 50.5 -21t21.5 -51t-21.5 -51.5t-50.5 -21.5q-30 0 -51.5 21.5zM559 1h-126v552h126v-552z" />
<glyph unicode="&#xfb02;" horiz-adv-x="612" d="M193 0h-126v709h272v-117h-146v-158h134v-118h-134v-316zM544 0h-124v709h124v-709z" />
<glyph horiz-adv-x="0" />
<glyph horiz-adv-x="333" />
<glyph unicode=" "  horiz-adv-x="210" />
<glyph unicode="&#x09;" horiz-adv-x="210" />
<glyph unicode="&#xa0;" horiz-adv-x="210" />
<glyph unicode="!" horiz-adv-x="300" d="M216 205h-125v504h125v-504zM102 9.5q-21 21.5 -21 51.5t21 51t51 21t51 -21t21 -51t-21 -51.5t-51 -21.5t-51 21.5z" />
<glyph unicode="&#x22;" horiz-adv-x="419" d="M117 491h-94l57 218h136zM296 491h-94l57 218h136z" />
<glyph unicode="#" horiz-adv-x="698" d="M215 37h-129l36 140h-112l31 117h111l29 118h-112l32 118h110l37 146h129l-37 -146h109l37 146h129l-37 -146h100l-31 -118h-99l-29 -118h100l-32 -117h-99l-35 -140h-129l36 140h-109zM306 416l-31 -126h118l31 126h-118z" />
<glyph unicode="$" horiz-adv-x="564" d="M224 -8q-82 17 -135 75t-53 134h124q0 -42 35 -70t85 -28t84.5 28t34.5 71q0 45 -32 68.5t-100 43.5q-67 19 -109 36.5t-75 57.5t-33 109q0 71 49 126t125 73v63h124v-63q77 -17 127 -73t50 -127h-126q0 39 -32.5 65.5t-78.5 26.5q-48 0 -80.5 -23t-32.5 -61 q0 -30 15 -47.5t38.5 -26.5t76.5 -25q67 -19 113.5 -42.5t76.5 -67.5t30 -113q0 -73 -50 -130t-127 -76v-75h-124v71z" />
<glyph unicode="%" horiz-adv-x="871" d="M118 377.5q-44 25.5 -69.5 69t-25.5 94.5t25.5 94t69 68.5t95.5 25.5q51 0 94 -25.5t68.5 -68.5t25.5 -94t-25.5 -94.5t-68.5 -69t-94 -25.5t-95 25.5zM265 1h-122l455 712h122zM276 477.5q26 26.5 26 63.5q0 36 -26 62.5t-63 26.5t-63.5 -26.5t-26.5 -62.5 q0 -37 26.5 -63.5t63.5 -26.5t63 26.5zM560 11.5q-44 25.5 -70 69.5t-26 96q0 53 26 97t70 69.5t96 25.5t96 -25.5t70 -69.5t26 -97q0 -52 -26 -96t-70 -69.5t-96 -25.5t-96 25.5zM721.5 112q27.5 27 27.5 65q0 39 -27.5 66t-65.5 27q-39 0 -66 -27t-27 -66q0 -38 27 -65 t66 -27q38 0 65.5 27z" />
<glyph unicode="&#x26;" horiz-adv-x="612" d="M167 19.5q-59 34.5 -93.5 93.5t-34.5 128q1 68 39 124t97 80q-22 18 -34.5 46.5t-12.5 57.5q0 48 24 88t64.5 63.5t88.5 23.5q49 0 89.5 -23.5t64.5 -64t24 -89.5h-117q0 26 -17.5 43t-42.5 17t-42.5 -17t-17.5 -41q0 -25 16.5 -42.5t40.5 -17.5h13v-116h-18 q-56 0 -94.5 -38.5t-39.5 -99.5q0 -58 38 -94.5t95 -37.5q56 0 93.5 40t37.5 105h-66v98h253v-98h-63q0 -75 -34 -135t-92.5 -94t-128.5 -34q-71 0 -130 34.5z" />
<glyph unicode="'" horiz-adv-x="233" d="M117 489h-94l57 218h136z" />
<glyph unicode="(" horiz-adv-x="328" d="M147 -142q-56 99 -84.5 216.5t-28.5 240.5t28.5 240t84.5 215h138q-63 -92 -95 -210.5t-32 -244.5q0 -127 32.5 -246t94.5 -211h-138z" />
<glyph unicode=")" horiz-adv-x="329" d="M43 -142q62 91 94.5 210t32.5 247q0 126 -32 244.5t-94 210.5h137q56 -98 84.5 -215t28.5 -240q0 -124 -28.5 -241.5t-84.5 -215.5h-138z" />
<glyph unicode="*" horiz-adv-x="470" d="M297 290h-125l23 145l-107 -99l-65 107l141 57l-141 56l65 106l107 -98l-23 145h125l-22 -145l105 98l66 -106l-141 -56l141 -57l-66 -107l-105 99z" />
<glyph unicode="+" horiz-adv-x="489" d="M303 142h-117v155h-152v111h152v155h117v-155h152v-111h-152v-155z" />
<glyph unicode="," horiz-adv-x="240" d="M117 -90h-94l57 218h136z" />
<glyph unicode="-" horiz-adv-x="392" d="M362 215h-331v111h331v-111z" />
<glyph unicode="." horiz-adv-x="198" d="M48 9.5q-21 21.5 -21 50.5q0 30 21 51t51 21t51 -21t21 -51q0 -29 -21 -50.5t-51 -21.5t-51 21.5z" />
<glyph unicode="/" horiz-adv-x="444" d="M130 -162h-130l313 871h131z" />
<glyph unicode="0" horiz-adv-x="803" d="M214.5 34.5q-85.5 49.5 -135.5 134.5t-50 186t50 185.5t135.5 134t186.5 49.5t186.5 -49.5t135.5 -134t50 -185.5t-50 -186t-135.5 -134.5t-186.5 -49.5t-186.5 49.5zM525.5 136q56.5 33 89.5 91t33 128t-33 127.5t-89.5 90.5t-124.5 33q-67 0 -123.5 -33t-90 -90.5 t-33.5 -127.5t33.5 -128t90 -91t123.5 -33q68 0 124.5 33z" />
<glyph unicode="1" horiz-adv-x="313" d="M233 0h-125l1 591h-91v118h215v-709z" />
<glyph unicode="2" horiz-adv-x="537" d="M32 0v130l275 263q29 28 43.5 54t14.5 58q0 42 -29 71.5t-75 29.5t-74 -30.5t-28 -77.5h-124q0 63 28.5 114.5t81 81.5t122.5 30q68 0 119 -29.5t78 -79t27 -107.5q0 -115 -96 -203l-193 -183v-4h288v-118h-458z" />
<glyph unicode="3" horiz-adv-x="539" d="M139 18.5q-57 33.5 -90 90t-33 123.5h125q0 -57 33.5 -93.5t89.5 -36.5q55 1 88 37t33 91q0 57 -37 90.5t-98 33.5h-125l156 238h-205v117h409l-166 -248v-3l7 -1q53 -8 95 -40.5t65.5 -81.5t23.5 -104q0 -66 -33.5 -122.5t-90 -90t-123.5 -33.5t-124 33.5z" />
<glyph unicode="4" horiz-adv-x="570" d="M474 0h-125v136h-336v92l306 481h155v-461h61v-112h-61v-136zM346 538l-187 -290h193v290h-6z" />
<glyph unicode="5" horiz-adv-x="563" d="M146.5 19q-58.5 34 -93 92.5t-34.5 127.5l125 1q0 -58 37.5 -98t93.5 -40q57 0 94.5 38.5t37.5 96.5q0 55 -35 93.5t-91 38.5q-32 0 -58 -10.5t-42 -30.5h-127l103 381h317v-117h-227l-36 -138h7q37 24 92 24q63 0 113.5 -32t79 -87t28.5 -122q0 -70 -34.5 -128 t-93.5 -91t-128 -33q-70 0 -128.5 34z" />
<glyph unicode="6" horiz-adv-x="556" d="M149 19.5q-59 34.5 -93.5 93.5t-34.5 128q0 73 41 140l212 328h148l-158 -237l2 -4q21 11 50 11q61 0 111 -33.5t78.5 -88.5t28.5 -117q0 -69 -35 -127.5t-94.5 -93t-127.5 -34.5q-69 0 -128 34.5zM371.5 142q37.5 38 37.5 95t-37.5 96.5t-94.5 39.5t-94 -39t-37 -97 q0 -57 37 -95t94 -38t94.5 38z" />
<glyph unicode="7" horiz-adv-x="498" d="M162 0h-141l288 587l-1 4h-281v118h477z" />
<glyph unicode="8" horiz-adv-x="549" d="M152 17.5q-56 32.5 -88.5 88.5t-32.5 122q0 59 32.5 112t80.5 79q-25 17 -42 51t-17 67q0 52 25.5 94.5t69 67.5t94.5 25q52 0 95.5 -25t69 -67.5t25.5 -94.5q0 -33 -16 -65.5t-42 -52.5q48 -28 80.5 -80.5t32.5 -110.5q0 -66 -33 -122t-89.5 -88.5t-122.5 -32.5 t-122 32.5zM327.5 473.5q22.5 22.5 22.5 55.5q0 34 -22 55.5t-54 21.5q-31 0 -53 -21.5t-22 -55.5q0 -33 22 -55.5t53 -22.5t53.5 22.5zM359.5 137.5q34.5 34.5 34.5 87.5t-34.5 87.5t-85.5 34.5q-50 0 -84.5 -34.5t-34.5 -87.5q0 -52 35 -87t84 -35q51 0 85.5 34.5z" />
<glyph unicode="9" horiz-adv-x="556" d="M407 689.5q59 -34.5 93.5 -93t34.5 -127.5q0 -75 -42 -141l-211 -328h-148l157 237l-2 4q-21 -11 -49 -11q-61 0 -111 33.5t-79 88.5t-29 117q0 69 35.5 127.5t94.5 93t127 34.5q70 0 129 -34.5zM184.5 567.5q-37.5 -38.5 -37.5 -95.5t37.5 -96t94.5 -39t94 39t37 96 t-37 95.5t-94 38.5t-94.5 -38.5z" />
<glyph unicode=":" horiz-adv-x="199" d="M48 441.5q-21 21.5 -21 51.5t21 51.5t51 21.5q31 0 52 -21.5t21 -51.5t-21 -51.5t-52 -21.5q-30 0 -51 21.5zM48 11q-21 21 -21 51t21 51t51 21q31 0 52 -21t21 -51t-21 -51t-52 -21q-30 0 -51 21z" />
<glyph unicode=";" horiz-adv-x="248" d="M89.5 440q-21.5 21 -21.5 52q0 30 21.5 51t51.5 21t51.5 -21t21.5 -51q0 -31 -21.5 -52t-51.5 -21t-51.5 21zM117 -91h-94l57 218h136z" />
<glyph unicode="&#x3c;" horiz-adv-x="416" d="M20 408l362 168v-131l-215 -91l215 -91v-132l-362 169v108z" />
<glyph unicode="=" horiz-adv-x="489" d="M455 419h-421v111h421v-111zM455 187h-421v110h421v-110z" />
<glyph unicode="&#x3e;" horiz-adv-x="417" d="M34 445v131l362 -168v-108l-362 -169v132l215 91z" />
<glyph unicode="?" horiz-adv-x="501" d="M161 238q0 49 18.5 83t43 54t62.5 44q36 22 52 42t16 50q0 39 -31 63.5t-76 24.5q-47 0 -77 -23t-30 -64h-126q0 60 29 108.5t82 76t122 27.5t121.5 -27t81.5 -74.5t29 -105.5q0 -52 -19.5 -88t-44 -55.5t-64.5 -44.5q-34 -20 -49.5 -43t-15.5 -56v-31h-124v39z M171.5 9.5q-21.5 21.5 -21.5 51.5t21.5 51t51.5 21t51 -21t21 -51t-21 -51.5t-51 -21.5t-51.5 21.5z" />
<glyph unicode="@" horiz-adv-x="800" d="M385 -7q-97 0 -179 49t-130.5 133t-48.5 183t48.5 183t130.5 133.5t179 49.5t179 -49.5t130.5 -133.5t48.5 -183v-217h-265v72h-6q-15 -20 -39.5 -30.5t-48.5 -10.5q-51 0 -94 25t-68.5 68t-25.5 94t25.5 94.5t68.5 69t94 25.5t94 -25.5t68.5 -69t25.5 -94.5v-112h64v111 q0 77 -34 136t-91.5 91t-125.5 32t-125.5 -32t-91.5 -91t-34 -136q0 -74 34 -133t92 -92t125 -33v-107zM453.5 290.5q28.5 28.5 28.5 68.5q0 41 -28.5 69.5t-69.5 28.5q-40 0 -68.5 -29t-28.5 -69t28.5 -68.5t68.5 -28.5q41 0 69.5 28.5z" />
<glyph unicode="A" d="M135 0h-132l251 710h145l253 -710h-132l-39 108h-308zM213 225h227l-98 284q-11 33 -15 51h-2q-5 -26 -15 -50z" />
<glyph unicode="B" horiz-adv-x="644" d="M84 -1v710h293q57 0 104.5 -27.5t75 -73t27.5 -97.5q0 -47 -24.5 -87.5t-65.5 -61.5q49 -19 77.5 -64t28.5 -100q0 -50 -27 -96t-74.5 -74.5t-106.5 -28.5h-308zM364 413q41 0 66 27t25 63q0 37 -25 63.5t-66 26.5h-156v-180h156zM380 116q41 0 66 25.5t25 63.5 q0 40 -25 66t-71 26h-167v-181h172z" />
<glyph unicode="C" horiz-adv-x="677" d="M216.5 33.5q-84.5 48.5 -134 133.5t-49.5 189q0 102 49.5 186.5t134 133t185.5 48.5q76 0 144.5 -29t119.5 -82l-74 -81q-71 73 -190 73q-67 0 -121.5 -31.5t-86 -88.5t-31.5 -129q0 -73 31.5 -130.5t86 -89.5t121.5 -32q113 0 184 69l75 -81q-50 -51 -117 -79t-142 -28 q-101 0 -185.5 48.5z" />
<glyph unicode="D" horiz-adv-x="701" d="M84 0v710h230q97 0 178 -48t128.5 -129.5t47.5 -178.5q0 -96 -47.5 -177.5t-128.5 -129t-178 -47.5h-230zM314 117q62 0 115 31.5t84 85.5t31 120t-31 121t-84 86.5t-115 31.5h-107v-476h107z" />
<glyph unicode="E" horiz-adv-x="582" d="M537 0h-453v709h453v-116h-328v-179h270v-117h-270v-180h328v-117z" />
<glyph unicode="F" horiz-adv-x="558" d="M208 0h-124v709h454v-116h-330v-179h274v-117h-274v-297z" />
<glyph unicode="G" horiz-adv-x="747" d="M216.5 35q-84.5 50 -134 135t-49.5 185q0 101 49.5 185.5t134 134t185.5 49.5q79 0 153 -30t120 -85l-76 -81q-41 42 -86.5 61.5t-110.5 19.5q-66 0 -122 -33.5t-89 -91.5t-33 -129q0 -70 33 -128.5t89 -92t122 -33.5q56 0 98 15t78 51v126h-153v117h276v-274 q-38 -55 -114.5 -103t-184.5 -48q-101 0 -185.5 50z" />
<glyph unicode="H" horiz-adv-x="737" d="M209 0h-125v709h125v-295h320v295h124v-709h-124v297h-320v-297z" />
<glyph unicode="I" horiz-adv-x="293" d="M209 0h-125v709h125v-709z" />
<glyph unicode="J" horiz-adv-x="515" d="M115 14q-50 29 -78.5 78t-28.5 108h125q0 -42 26 -70t66 -28q41 0 66.5 25.5t25.5 65.5v516h125v-509q0 -60 -29.5 -109t-79.5 -77.5t-108 -28.5q-60 0 -110 29z" />
<glyph unicode="K" horiz-adv-x="611" d="M209 0h-125v709h125v-305h96l182 305h139l-214 -357l204 -352h-139l-172 288h-96v-288z" />
<glyph unicode="L" horiz-adv-x="505" d="M497 -1h-413v710h124v-592h289v-118z" />
<glyph unicode="M" horiz-adv-x="898" d="M84 0v709h171l192 -540h3l192 540h172v-709h-123v501h-4q-14 -52 -23 -76l-157 -425h-115l-157 425q-15 41 -23 76h-4v-501h-124z" />
<glyph unicode="N" horiz-adv-x="740" d="M84 0v709h128l281 -445q8 -13 23 -43q4 -7 7.5 -13.5t5.5 -10.5h3v512h124v-709h-134l-283 449q-21 34 -27 54h-4v-503h-124z" />
<glyph unicode="O" horiz-adv-x="805" d="M217.5 35q-84.5 50 -134.5 134.5t-50 184.5q0 101 50 185.5t134.5 134t184.5 49.5q101 0 186 -49.5t134.5 -134t49.5 -185.5q0 -100 -49.5 -184.5t-134.5 -134.5t-186 -50q-100 0 -184.5 50zM528 135q56 33 88 91t32 128q0 71 -32 128.5t-88 91t-126 33.5t-125.5 -33.5 t-87 -91t-31.5 -128.5q0 -70 31.5 -128t87 -91t125.5 -33t126 33z" />
<glyph unicode="P" horiz-adv-x="576" d="M84 0v709h221q68 0 125 -33t90.5 -89.5t33.5 -124.5q0 -67 -33.5 -124t-90.5 -90.5t-125 -33.5h-96v-214h-125zM305 332q53 0 89 36.5t36 93.5q0 37 -17 67.5t-45.5 48t-62.5 17.5h-96v-263h96z" />
<glyph unicode="Q" horiz-adv-x="825" d="M218 35q-85 50 -135 135t-50 186q0 100 50 184.5t135 134t185 49.5q101 0 186 -49.5t135 -134t50 -184.5q0 -64 -21 -122t-60 -107l98 -127h-157l-33 43q-92 -58 -198 -58q-100 0 -185 50zM530 136q56 34 87.5 92t31.5 128q0 71 -32 128.5t-88 90.5t-126 33t-126.5 -33 t-88 -90.5t-31.5 -128.5t31.5 -129t88 -91.5t126.5 -33.5q71 0 127 34z" />
<glyph unicode="R" horiz-adv-x="601" d="M85 1l-1 710h226q68 0 125 -33t90.5 -89.5t33.5 -124.5q0 -71 -39 -129.5t-100 -87.5l142 -246h-142l-126 215h-83v-215h-126zM310 334q52 0 87 36.5t35 93.5q0 56 -35.5 93.5t-86.5 37.5h-99v-261h99z" />
<glyph unicode="S" horiz-adv-x="567" d="M157.5 15q-55.5 29 -88.5 78.5t-33 107.5h123q0 -41 35.5 -69t84.5 -28q54 0 86.5 27t32.5 66q0 33 -13 52t-39.5 31t-79.5 28q-65 20 -105.5 38.5t-72.5 59.5t-32 110q0 57 31.5 105t86 76t119.5 28q64 0 117.5 -28t85 -76t31.5 -106h-124q0 42 -31.5 68t-79.5 26 q-51 0 -81.5 -24t-30.5 -60t25.5 -57t93.5 -42q70 -21 112.5 -40t76.5 -63.5t34 -119.5q0 -61 -32.5 -110.5t-88.5 -78t-123 -28.5q-65 0 -120.5 29z" />
<glyph unicode="T" horiz-adv-x="491" d="M308 -1h-125v594h-175v116h475v-116h-175v-594z" />
<glyph unicode="U" horiz-adv-x="685" d="M202.5 19.5q-62.5 34.5 -97.5 95t-35 135.5v459h125v-466q0 -64 40 -102t108 -38q67 0 107.5 38.5t40.5 101.5l-1 466h125v-459q0 -75 -35 -135.5t-97 -95t-140 -34.5t-140.5 34.5z" />
<glyph unicode="V" d="M256 0l-253 709h132l174 -498q2 -5 8 -23t9 -35h3q4 23 16 58l173 498h134l-254 -709h-142z" />
<glyph unicode="W" horiz-adv-x="1003" d="M221 0l-194 709h129l130 -491q9 -31 15 -65h3q8 44 14 65l130 491h102l134 -491q9 -26 14 -65h4q5 35 12 63l132 493h130l-195 -709h-150l-121 454l-10 45h-3q-4 -18 -12 -45l-120 -454h-144z" />
<glyph unicode="X" horiz-adv-x="617" d="M150 0h-148l239 362l-226 347h148l145 -240l146 240h148l-226 -347l238 -362h-148l-158 255z" />
<glyph unicode="Y" horiz-adv-x="597" d="M236 0v279l-240 430h142l151 -274q3 -6 4.5 -11.5t3.5 -9.5h3q3 11 9 21l151 274h141l-240 -430v-279h-125z" />
<glyph unicode="Z" horiz-adv-x="562" d="M527 0h-495v110l341 482h-333v117h481v-123l-331 -469h337v-117z" />
<glyph unicode="[" horiz-adv-x="341" d="M294 -152h-213v915h213v-111h-88v-693h88v-111z" />
<glyph unicode="\" horiz-adv-x="444" d="M131 709l313 -871h-130l-314 871h131z" />
<glyph unicode="]" horiz-adv-x="341" d="M260 763v-915h-213v111h88v693h-88v111h213z" />
<glyph unicode="_" horiz-adv-x="567" d="M567 -137h-567v111h567v-111z" />
<glyph unicode="`" horiz-adv-x="211" d="M198 628h-94l-91 168h133z" />
<glyph unicode="a" horiz-adv-x="700" d="M157.5 24q-62.5 39 -98 106t-35.5 147t35.5 147t98 106t139.5 39q71 0 126.5 -34.5t82.5 -91.5h4v110h122v-553h-122v108h-4q-68 -123 -209 -123q-77 0 -139.5 39zM410.5 125.5q38.5 22.5 60 62.5t21.5 89q0 50 -21.5 89.5t-60 62t-87.5 22.5t-87 -22.5t-59 -62 t-21 -89.5q0 -49 21 -89t59 -62.5t87 -22.5t87.5 22.5z" />
<glyph unicode="b" horiz-adv-x="699" d="M284.5 15q-55.5 30 -90.5 93h-5v-108h-122v709h126v-266h4q27 56 83.5 91t128.5 35q74 0 135 -39t96 -106t35 -147t-35 -147t-96 -106t-135 -39q-69 0 -124.5 30zM463 125.5q38 22.5 59 62.5t21 89q0 50 -21 89.5t-59 62t-87 22.5t-87 -22.5t-59.5 -62t-21.5 -89.5 q0 -49 21.5 -89t59.5 -62.5t87 -22.5t87 22.5z" />
<glyph unicode="c" horiz-adv-x="535" d="M171 24.5q-68 39.5 -107.5 107t-39.5 147.5t39.5 147t107.5 106.5t148 39.5q62 0 117.5 -24.5t96.5 -67.5l-81 -83q-24 27 -58 42t-75 15q-46 0 -85 -23t-61.5 -63t-22.5 -89t22.5 -89.5t61.5 -63.5t85 -23q76 0 126 50l81 -82q-40 -41 -93.5 -63.5t-113.5 -22.5 q-80 0 -148 39.5z" />
<glyph unicode="d" horiz-adv-x="699" d="M155 24q-61 39 -96 106t-35 147t35 147t96 106t135 39q72 0 128.5 -35t83.5 -91h4v266h126v-709h-122v108h-5q-35 -63 -90.5 -93t-124.5 -30q-74 0 -135 39zM410 125.5q38 22.5 59.5 62.5t21.5 89q0 50 -21.5 89.5t-59.5 62t-87 22.5t-87 -22.5t-59 -62t-21 -89.5 q0 -49 21 -89t59 -62.5t87 -22.5t87 22.5z" />
<glyph unicode="e" horiz-adv-x="650" d="M173 24.5q-69 39.5 -109 107t-40 147.5t40 146t109 104.5t152 38.5t152 -38.5t109 -105.5t40 -149q0 -20 -4 -40h-464q11 -57 58.5 -95t110.5 -38q50 0 89 22.5t58 64.5h138q-30 -91 -107.5 -147.5t-179.5 -56.5q-83 0 -152 39.5zM487 330q-8 51 -54 86t-110 35 q-66 0 -111 -34t-52 -87h327z" />
<glyph unicode="f" horiz-adv-x="366" d="M193 0h-126v709h272v-117h-146v-158h134v-118h-134v-316z" />
<glyph unicode="g" horiz-adv-x="628" d="M45 -160v154h121v-51h318v20q-24 1 -54 12l-223 63q-86 25 -134.5 95.5t-48.5 156.5q0 73 36 133t98.5 95t138.5 35h278v-86h-58q-7 0 -29 4h-5q38 -34 60 -80.5t22 -100.5q0 -78 -42 -137.5t-106 -77.5v-6q36 0 61 -7l100 -28v-194h-533zM398.5 186.5 q41.5 41.5 41.5 103.5t-41 103t-102 42q-66 -1 -106.5 -41.5t-40.5 -103.5q0 -62 41 -103.5t103 -41.5q63 0 104.5 41.5z" />
<glyph unicode="h" horiz-adv-x="634" d="M191 709v-156h375v-553h-124v436h-251v-436h-124v709h124z" />
<glyph unicode="i" horiz-adv-x="260" d="M79.5 659.5q-21.5 21.5 -21.5 51.5t21.5 51t51.5 21q29 0 50.5 -21t21.5 -51t-21.5 -51.5t-50.5 -21.5q-30 0 -51.5 21.5zM193 1h-126v552h126v-552z" />
<glyph unicode="j" horiz-adv-x="261" d="M79.5 659.5q-21.5 21.5 -21.5 51.5t21.5 51t51.5 21q29 0 50.5 -21t21.5 -51t-21.5 -51.5t-50.5 -21.5q-30 0 -51.5 21.5zM193 -158h-200v110h75v602h125v-712z" />
<glyph unicode="k" horiz-adv-x="595" d="M193 0h-126v712h126v-364h75l127 207h136l-130 -207h146v-348h-125v230h-229v-230z" />
<glyph unicode="l" horiz-adv-x="259" d="M191 0h-124v709h124v-709z" />
<glyph unicode="m" horiz-adv-x="1009" d="M942 553v-553h-124v436h-252v-436h-124v436h-251v-436h-124v553h875z" />
<glyph unicode="n" horiz-adv-x="634" d="M191 0h-124v553h499v-553h-124v436h-251v-436z" />
<glyph unicode="o" horiz-adv-x="637" d="M170.5 24.5q-67.5 39.5 -107 106.5t-39.5 145q0 80 39.5 147t107 105.5t147.5 38.5t147.5 -38.5t107 -105.5t39.5 -147q0 -78 -39.5 -145t-107 -106.5t-147.5 -39.5t-147.5 39.5zM404 125q39 22 61.5 61.5t22.5 89.5q0 52 -22.5 91.5t-61.5 60.5t-86 21t-85 -21 t-60.5 -60.5t-22.5 -91.5q0 -50 22.5 -89.5t61 -61.5t84.5 -22q47 0 86 22z" />
<glyph unicode="p" horiz-adv-x="701" d="M67 -158v711h123v-112h4q25 58 84.5 92.5t130.5 34.5q74 0 135 -39t96 -106t35 -147t-35 -147t-96 -106t-135 -39q-141 0 -212 122h-4v-264h-126zM461.5 123.5q38.5 21.5 61.5 61t23 91.5t-23 91.5t-61.5 61t-85.5 21.5q-46 0 -84.5 -21.5t-61 -61t-22.5 -91.5 t22.5 -91.5t61 -61t84.5 -21.5q47 0 85.5 21.5z" />
<glyph unicode="q" horiz-adv-x="701" d="M634 -158h-126v264h-4q-71 -122 -212 -122q-74 0 -135 39t-96 106t-35 147t35 147t96 106t135 39q71 0 130.5 -34.5t84.5 -92.5h4v112h123v-711zM409.5 123.5q38.5 21.5 61 61t22.5 91.5t-22.5 91.5t-61 61t-84.5 21.5q-47 0 -85.5 -21.5t-61.5 -61t-23 -91.5t23 -91.5 t61.5 -61t85.5 -21.5q46 0 84.5 21.5z" />
<glyph unicode="r" horiz-adv-x="407" d="M193 0h-126v553h333v-117h-207v-436z" />
<glyph unicode="s" horiz-adv-x="473" d="M129 9q-47 24 -74 64.5t-27 88.5h125q1 -27 24.5 -44.5t58.5 -17.5q37 0 58.5 16.5t21.5 43.5q0 21 -13.5 34t-31 19t-54.5 16q-86 22 -132 60.5t-46 109.5q0 47 26 85.5t71.5 61t101.5 22.5q54 0 99.5 -23t72.5 -62.5t27 -87.5l-125 1q0 27 -21.5 42.5t-52.5 15.5 t-52.5 -14.5t-21.5 -39.5q0 -19 13 -31t30.5 -17.5t54.5 -15.5q53 -14 88 -29t61.5 -50t26.5 -95q0 -48 -27.5 -88.5t-74.5 -64.5t-102 -24q-58 0 -105 24z" />
<glyph unicode="t" horiz-adv-x="344" d="M307 0h-210v436h-85v117h85v156h125v-156h88v-117h-88v-319h85v-117z" />
<glyph unicode="u" horiz-adv-x="581" d="M169 14q-54 29 -84.5 81.5t-30.5 119.5v338h124v-345q0 -51 31 -78.5t82 -27.5q52 0 81.5 28.5t29.5 77.5v345h126v-338q0 -67 -30.5 -119.5t-84.5 -81.5t-122 -29t-122 29z" />
<glyph unicode="v" horiz-adv-x="525" d="M329 0h-134l-201 554h132l136 -377l137 376h132z" />
<glyph unicode="w" horiz-adv-x="780" d="M292 0h-132l-158 553h129l106 -376l99 376h109l99 -376l105 376h129l-157 -553h-132l-99 376z" />
<glyph unicode="x" horiz-adv-x="514" d="M145 0h-149l193 283l-184 270h149l103 -167l103 167h149l-184 -270l193 -283h-149l-112 179z" />
<glyph unicode="y" horiz-adv-x="547" d="M233 -158h-137l116 241l-219 470h136l153 -326l136 326h136z" />
<glyph unicode="z" horiz-adv-x="489" d="M459 0h-431v104l268 334h-258v115h413v-113l-260 -325h268v-115z" />
<glyph unicode="{" horiz-adv-x="325" d="M225 -157q-51 0 -87 35.5t-36 86.5v269q0 8 -6 14t-14 6h-31v109h30q8 0 14 5.5t6 13.5v269q0 51 36 87t87 36h47v-109h-44q-7 0 -12 -5t-5 -12v-276q0 -19 -7 -37t-22 -27q15 -8 22 -26t7 -37v-276q0 -7 5 -12t12 -5h44v-109h-46z" />
<glyph unicode="|" horiz-adv-x="279" d="M195 -101h-111l1 912h110v-912z" />
<glyph unicode="}" horiz-adv-x="326" d="M54 -157v109h44q7 0 12 5t5 12v276q0 19 7 37t22 26q-14 9 -21 27t-7 37v276q0 7 -5 12t-12 5h-45v109h47q52 0 87.5 -36t35.5 -87v-269q0 -8 6 -13.5t14 -5.5h31v-109h-32q-8 0 -13.5 -6t-5.5 -14v-269q0 -50 -36 -86t-87 -36h-47z" />
<glyph unicode="&#xa1;" horiz-adv-x="307" d="M204 541.5q21 -21.5 21 -51.5t-21 -51t-51 -21t-51 21t-21 51t21 51.5t51 21.5t51 -21.5zM91 -158v505h125v-505h-125z" />
<glyph unicode="&#xa2;" horiz-adv-x="504" d="M134 187q-37 28 -58.5 70.5t-21.5 90.5q0 55 27 101.5t73.5 74t101.5 27.5q37 0 68 -12l22 40h64l-37 -67q29 -20 49.5 -49t27.5 -64h-107q-9 12 -19 21l-86 -160q13 -4 29 -4q21 2 39.5 13.5t28.5 28.5h115q-16 -66 -70 -109t-124 -43q-36 0 -73 13l-28 -52h-64z M269 437q-14 2 -21 2q-35 0 -60 -27t-25 -64q0 -36 26 -60z" />
<glyph unicode="&#xa3;" horiz-adv-x="520" d="M23 117q50 14 104.5 48t58.5 67h-116v102h88q-7 9 -27 29q-26 27 -41.5 47t-27 50t-11.5 68q0 56 28 101t76 70t106 25h9q57 0 105.5 -28t76.5 -76.5t28 -105.5h-109q0 38 -29.5 66.5t-71.5 28.5h-9q-42 0 -72 -26.5t-30 -66.5q0 -31 17.5 -54.5t52.5 -53.5 q28 -25 42 -39.5t23 -34.5h109v-102h-98q-5 -31 -30.5 -63t-53.5 -51v-5h260v-113h-458v117z" />
<glyph unicode="&#xa5;" horiz-adv-x="655" d="M388 0h-122v218h-223v88h223v53h-223v88h171l-184 262h139l158 -236l158 236h140l-184 -262h172v-88h-225v-53h225v-88h-225v-218z" />
<glyph unicode="&#xa6;" horiz-adv-x="279" d="M194 417h-110v394h110v-394zM195 -101h-111l1 393h110v-393z" />
<glyph unicode="&#xa7;" horiz-adv-x="562" d="M506.5 213.5q-15.5 -26.5 -39.5 -42.5q55 -43 55 -124q0 -61 -32.5 -111t-88.5 -78.5t-123 -28.5q-65 0 -120.5 29t-88.5 79t-33 108h123q0 -42 35.5 -70t83.5 -28q51 0 85.5 28t34.5 72q0 30 -19.5 47.5t-47.5 26t-80 18.5q-64 12 -104 25t-68 44t-28 87q0 33 16.5 58.5 t41.5 41.5q-58 41 -58 121q0 57 31.5 105t86 76t119.5 28q64 0 117.5 -28t85 -76t31.5 -106h-124q0 42 -32.5 68.5t-77.5 26.5q-51 0 -82 -24.5t-31 -63.5q0 -27 18.5 -43.5t46 -24.5t77.5 -18q64 -12 105.5 -26t70.5 -46.5t29 -88.5q0 -35 -15.5 -61.5zM192.5 269.5 q17.5 -15.5 44.5 -23.5t74 -18q51 -11 73 -17q14 20 14 43q0 30 -18.5 47.5t-46.5 26t-77 19.5q-40 8 -60 13q-21 -21 -21 -49q0 -26 17.5 -41.5z" />
<glyph unicode="&#xa8;" horiz-adv-x="308" d="M31.5 644.5q-18.5 18.5 -18.5 43.5t18 42.5t44 17.5q25 0 43 -17.5t18 -42.5q0 -26 -18 -44t-43 -18t-43.5 18.5zM190 644q-18 18 -18 44q0 25 18 42.5t43 17.5q26 0 44 -17.5t18 -42.5t-18 -43.5t-44 -18.5q-25 0 -43 18z" />
<glyph unicode="&#xa9;" horiz-adv-x="536" d="M151 289.5q-54 31.5 -85.5 85t-31.5 116.5t31.5 116.5t85.5 85t117 31.5t117 -31.5t85.5 -85t31.5 -116.5t-31.5 -116.5t-85.5 -85t-117 -31.5t-117 31.5zM355.5 338.5q40.5 23.5 64.5 64t24 88.5t-24 88t-64.5 63.5t-87.5 23.5q-48 0 -88.5 -23.5t-64 -63.5t-23.5 -88 t23.5 -88.5t64 -64t88.5 -23.5q47 0 87.5 23.5zM189.5 408.5q-33.5 33.5 -33.5 81.5q0 47 33.5 80.5t81.5 33.5q38 0 67.5 -22.5t39.5 -57.5h-57q-7 12 -20.5 20.5t-29.5 8.5q-26 0 -44.5 -18.5t-18.5 -44.5t18.5 -44.5t44.5 -18.5q31 0 49 25h57q-11 -33 -40 -55t-66 -22 q-48 0 -81.5 33.5z" />
<glyph unicode="&#xaa;" horiz-adv-x="458" d="M304 716h110v-354h-111v69q-34 -77 -118 -77q-48 0 -85 25t-57 67.5t-20 94.5t20 94.5t57 67t85 24.5q84 0 119 -78v67zM271 480q24 25 24 61t-24 61t-58 25q-35 0 -59.5 -25t-24.5 -61t24.5 -61t59.5 -25q34 0 58 25z" />
<glyph unicode="&#xab;" horiz-adv-x="483" d="M255 99h-141l-91 173l91 173h141l-102 -173zM463 99h-141l-92 173l92 173h141l-102 -173z" />
<glyph unicode="&#xad;" horiz-adv-x="392" d="M362 215h-331v111h331v-111z" />
<glyph unicode="&#xae;" horiz-adv-x="536" d="M150.5 289.5q-53.5 31.5 -85 85t-31.5 116.5t31.5 116.5t85 85t116.5 31.5q64 0 118 -31.5t85.5 -85t31.5 -116.5t-31.5 -116.5t-85.5 -85t-118 -31.5q-63 0 -116.5 31.5zM355.5 338.5q40.5 23.5 64.5 64t24 88.5t-24 88t-64.5 63.5t-88.5 23.5t-88 -23.5t-63.5 -63.5 t-23.5 -88t23.5 -88.5t63.5 -64t88 -23.5t88.5 23.5zM192 372v238h83q37 -1 62 -25t25 -62q0 -26 -14 -44t-36 -27l46 -80h-59l-42 77h-15v-77h-50zM278 486q15 2 24.5 11.5t9.5 25.5q0 18 -9.5 27.5t-24.5 10.5h-37v-75h37z" />
<glyph unicode="&#xaf;" horiz-adv-x="401" d="M388 639h-375v90h375v-90z" />
<glyph unicode="&#xb0;" horiz-adv-x="382" d="M112 430q-36 21 -57 57t-21 79t21 79t57 57t79 21q44 0 80 -21t56.5 -57t20.5 -79t-20.5 -79t-56.5 -57t-80 -21q-43 0 -79 21zM236 521q18 18 18 45q0 26 -18 44.5t-45 18.5t-45 -18.5t-18 -44.5q0 -27 18 -45t45 -18t45 18z" />
<glyph unicode="&#xb1;" horiz-adv-x="489" d="M303 196h-117v120h-152v110h152v130h117v-130h152v-110h-152v-120zM455 18h-421v111h421v-111z" />
<glyph unicode="&#xb2;" horiz-adv-x="372" d="M32 313v106l156 112q17 14 24 26t7 30q0 20 -11.5 31t-32.5 11q-46 0 -46 -47h-95q0 61 37.5 101.5t114.5 40.5q65 0 102.5 -35.5t37.5 -92.5q0 -36 -16 -64.5t-52 -51.5l-92 -67v-4h160v-96h-294z" />
<glyph unicode="&#xb3;" horiz-adv-x="359" d="M223 570q50 -7 78.5 -40t28.5 -88q0 -44 -21.5 -77t-56.5 -50t-74 -17q-74 0 -118 42.5t-44 111.5h104q0 -24 14.5 -39.5t38.5 -15.5q23 1 37 15t14 38q0 26 -14 40.5t-40 14.5h-86l78 114h-109v91h261l-96 -138v-1z" />
<glyph unicode="&#xb4;" horiz-adv-x="211" d="M107 628h-94l53 168h132z" />
<glyph unicode="&#xb6;" horiz-adv-x="699" d="M291 -162v400h-33q-65 0 -118.5 30.5t-85 85t-31.5 121.5q0 68 31 121t85 83t119 30h151v-871h-118zM615 -162h-118v871h118v-871zM291 358v233h-35q-50 0 -83 -32t-33 -84t33 -84.5t83 -32.5h35z" />
<glyph unicode="&#xb7;" horiz-adv-x="198" d="M48 279.5q-21 21.5 -21 50.5q0 30 21 51t51 21t51 -21t21 -51q0 -29 -21 -50.5t-51 -21.5t-51 21.5z" />
<glyph unicode="&#xb8;" horiz-adv-x="148" d="M13 -93q44 0 44 36q0 14 -10.5 23.5t-29.5 9.5v35q57 -1 87.5 -18t30.5 -65q0 -50 -32 -70.5t-90 -20.5v70z" />
<glyph unicode="&#xb9;" horiz-adv-x="260" d="M180 307h-111l1 307h-52l1 96h161v-403z" />
<glyph unicode="&#xba;" horiz-adv-x="425" d="M117.5 377.5q-43.5 25.5 -69 69t-25.5 94.5t25.5 94t69 68.5t95.5 25.5q51 0 94 -25.5t68.5 -68.5t25.5 -94t-25.5 -94.5t-68.5 -69t-94 -25.5q-52 0 -95.5 25.5zM272 479.5q23 24.5 23 61.5t-23 61.5t-59 24.5t-60 -25t-24 -61q0 -37 23.5 -61.5t60.5 -24.5 q36 0 59 24.5z" />
<glyph unicode="&#xbb;" horiz-adv-x="483" d="M253 272l-92 -173h-141l102 173l-102 173h141zM460 272l-91 -173h-141l102 173l-102 173h141z" />
<glyph unicode="&#xbc;" horiz-adv-x="698" d="M151 1h-115l455 712h114zM185 307h-111l1 307h-52l1 96h161v-403zM639 0h-103v75h-192v75l149 253h146v-242h35v-86h-35v-75zM534 313l-93 -152h96v152h-3z" />
<glyph unicode="&#xbd;" horiz-adv-x="728" d="M151 1h-115l455 712h114zM185 307h-111l1 307h-52l1 96h161v-403zM408 0v107l156 111q17 14 24.5 26.5t7.5 29.5q0 20 -12 31t-33 11q-45 0 -45 -47h-96q0 61 38 102t114 41q66 0 103.5 -36t37.5 -93q0 -72 -69 -115l-92 -68v-3h160v-97h-294z" />
<glyph unicode="&#xbe;" horiz-adv-x="781" d="M126 1l455 712h114l-454 -712h-115zM309.5 366.5q-20.5 -32.5 -55.5 -50.5t-77 -18q-69 0 -112 43t-43 111h104q0 -24 15 -39.5t39 -15.5q22 1 36 15t14 36q0 26 -13.5 39.5t-39.5 13.5h-87l76 120h-126v89h280l-96 -138v-1l5 -1q45 -6 73 -40.5t28 -89.5 q0 -41 -20.5 -73.5zM722 403v-242h36v-86h-36v-75h-103v75h-192v75l149 253h146zM525 161h96v152h-4z" />
<glyph unicode="&#xbf;" horiz-adv-x="501" d="M323 543.5q21 -21.5 21 -51.5t-21 -51t-51 -21q-31 0 -51.5 21t-20.5 51t21 51.5t51 21.5t51 -21.5zM334 316q0 -49 -19 -83.5t-43 -54.5t-62 -43q-36 -23 -52 -43t-16 -49q0 -40 31 -64.5t76 -24.5q46 0 76.5 23.5t30.5 63.5h125q0 -60 -28.5 -108.5t-81.5 -76 t-122 -27.5t-122 27t-81.5 74t-28.5 106q0 53 19.5 88.5t44 55.5t64.5 44q33 20 48.5 43t15.5 56v31h125v-38z" />
<glyph unicode="&#xc0;" d="M135 0h-132l251 710h145l253 -710h-132l-39 108h-308zM213 225h227l-98 284q-11 33 -15 51h-2q-5 -26 -15 -50zM374 784h-94l-91 168h133z" />
<glyph unicode="&#xc1;" d="M135 0h-132l251 710h145l253 -710h-132l-39 108h-308zM213 225h227l-98 284q-11 33 -15 51h-2q-5 -26 -15 -50zM375 784h-94l53 168h132z" />
<glyph unicode="&#xc2;" d="M135 0h-132l251 710h145l253 -710h-132l-39 108h-308zM213 225h227l-98 284q-11 33 -15 51h-2q-5 -26 -15 -50zM287 780h-102l104 151h77l102 -151h-101l-40 86z" />
<glyph unicode="&#xc3;" d="M135 0h-132l251 710h145l253 -710h-132l-39 108h-308zM213 225h227l-98 284q-11 33 -15 51h-2q-5 -26 -15 -50zM351 792q-18 7 -42 19q-14 7 -27 13t-24 6q-23 0 -40 -22l-81 54q22 33 54 49.5t68 16.5q23 -1 41 -7.5t41 -19.5q31 -18 49 -18q9 0 23.5 4.5t25.5 20.5 l80 -56q-26 -36 -61.5 -51.5t-67.5 -15.5q-21 0 -39 7z" />
<glyph unicode="&#xc4;" d="M135 0h-132l251 710h145l253 -710h-132l-39 108h-308zM213 225h227l-98 284q-11 33 -15 51h-2q-5 -26 -15 -50zM204.5 800.5q-18.5 18.5 -18.5 43.5t18 42.5t44 17.5q25 0 43 -17.5t18 -42.5q0 -26 -18 -44t-43 -18t-43.5 18.5zM363 800q-18 18 -18 44q0 25 18 42.5 t43 17.5q26 0 44 -17.5t18 -42.5t-18 -43.5t-44 -18.5q-25 0 -43 18z" />
<glyph unicode="&#xc5;" d="M135 0h-132l251 710h145l253 -710h-132l-39 108h-308zM213 225h227l-98 284q-11 33 -15 51h-2q-5 -26 -15 -50zM247.5 791q-33.5 33 -33.5 80t33.5 80.5t80.5 33.5q46 0 79.5 -33.5t33.5 -80.5t-33 -80t-80 -33t-80.5 33zM364 834q15 15 15 37q0 21 -15 36t-36 15 q-22 0 -37 -15t-15 -36q0 -22 15 -37t37 -15q21 0 36 15z" />
<glyph unicode="&#xc6;" horiz-adv-x="933" d="M148 0h-145l392 709h493v-118h-312l1 -176h238v-117h-236l1 -181h308v-117h-432l-1 143h-229zM448 554l-162 -294h168l-2 294h-4z" />
<glyph unicode="&#xc7;" horiz-adv-x="677" d="M586 173l75 -81q-48 -48 -111 -76t-134 -31q43 -18 43 -71q0 -50 -31.5 -70.5t-89.5 -20.5v70q44 0 44 36q0 14 -11 23.5t-30 9.5v28q-88 14 -158 65t-110 129.5t-40 171.5q0 102 49.5 186.5t134 133t185.5 48.5q76 0 144.5 -29t119.5 -82l-74 -81q-71 73 -190 73 q-67 0 -121.5 -31.5t-86 -88.5t-31.5 -129q0 -73 31.5 -130.5t86 -89.5t121.5 -32q113 0 184 69z" />
<glyph unicode="&#xc8;" horiz-adv-x="582" d="M537 0h-453v709h453v-116h-328v-179h270v-117h-270v-180h328v-117zM363 784h-94l-91 168h133z" />
<glyph unicode="&#xc9;" horiz-adv-x="582" d="M537 0h-453v709h453v-116h-328v-179h270v-117h-270v-180h328v-117zM363 784h-94l53 168h132z" />
<glyph unicode="&#xca;" horiz-adv-x="582" d="M537 0h-453v709h453v-116h-328v-179h270v-117h-270v-180h328v-117zM276 780h-102l104 151h77l102 -151h-101l-40 86z" />
<glyph unicode="&#xcb;" horiz-adv-x="582" d="M537 0h-453v709h453v-116h-328v-179h270v-117h-270v-180h328v-117zM193.5 800.5q-18.5 18.5 -18.5 43.5t18 42.5t44 17.5q25 0 43 -17.5t18 -42.5q0 -26 -18 -44t-43 -18t-43.5 18.5zM352 800q-18 18 -18 44q0 25 18 42.5t43 17.5q26 0 44 -17.5t18 -42.5t-18 -43.5 t-44 -18.5q-25 0 -43 18z" />
<glyph unicode="&#xcc;" horiz-adv-x="293" d="M209 0h-125v709h125v-709zM193 784h-94l-91 168h133z" />
<glyph unicode="&#xcd;" horiz-adv-x="293" d="M209 0h-125v709h125v-709zM193 784h-94l53 168h132z" />
<glyph unicode="&#xce;" horiz-adv-x="293" d="M209 0h-125v709h125v-709zM106 780h-102l104 151h77l102 -151h-101l-40 86z" />
<glyph unicode="&#xcf;" horiz-adv-x="293" d="M209 0h-125v709h125v-709zM23.5 800.5q-18.5 18.5 -18.5 43.5t18 42.5t44 17.5q25 0 43 -17.5t18 -42.5q0 -26 -18 -44t-43 -18t-43.5 18.5zM182 800q-18 18 -18 44q0 25 18 42.5t43 17.5q26 0 44 -17.5t18 -42.5t-18 -43.5t-44 -18.5q-25 0 -43 18z" />
<glyph unicode="&#xd0;" horiz-adv-x="701" d="M314 710q97 0 178 -48t128.5 -129.5t47.5 -178.5q0 -96 -47.5 -177.5t-128.5 -129t-178 -47.5h-230v710h230zM314 117q62 0 115 31.5t84 85.5t31 120t-31 121t-84 86.5t-115 31.5h-107v-176h152v-118h-152v-182h107z" />
<glyph unicode="&#xd1;" horiz-adv-x="740" d="M84 0v709h128l281 -445q8 -13 23 -43q4 -7 7.5 -13.5t5.5 -10.5h3v512h124v-709h-134l-283 449q-21 34 -27 54h-4v-503h-124zM402 792q-18 7 -42 19q-14 7 -27 13t-24 6q-23 0 -40 -22l-81 54q22 33 54 49.5t68 16.5q23 -1 41 -7.5t41 -19.5q31 -18 49 -18q9 0 23.5 4.5 t25.5 20.5l80 -56q-26 -36 -61.5 -51.5t-67.5 -15.5q-21 0 -39 7z" />
<glyph unicode="&#xd2;" horiz-adv-x="805" d="M217.5 35q-84.5 50 -134.5 134.5t-50 184.5q0 101 50 185.5t134.5 134t184.5 49.5q101 0 186 -49.5t134.5 -134t49.5 -185.5q0 -100 -49.5 -184.5t-134.5 -134.5t-186 -50q-100 0 -184.5 50zM528 135q56 33 88 91t32 128q0 71 -32 128.5t-88 91t-126 33.5t-125.5 -33.5 t-87 -91t-31.5 -128.5q0 -70 31.5 -128t87 -91t125.5 -33t126 33zM449 784h-94l-91 168h133z" />
<glyph unicode="&#xd3;" horiz-adv-x="805" d="M217.5 35q-84.5 50 -134.5 134.5t-50 184.5q0 101 50 185.5t134.5 134t184.5 49.5q101 0 186 -49.5t134.5 -134t49.5 -185.5q0 -100 -49.5 -184.5t-134.5 -134.5t-186 -50q-100 0 -184.5 50zM528 135q56 33 88 91t32 128q0 71 -32 128.5t-88 91t-126 33.5t-125.5 -33.5 t-87 -91t-31.5 -128.5q0 -70 31.5 -128t87 -91t125.5 -33t126 33zM450 784h-94l53 168h132z" />
<glyph unicode="&#xd4;" horiz-adv-x="805" d="M217.5 35q-84.5 50 -134.5 134.5t-50 184.5q0 101 50 185.5t134.5 134t184.5 49.5q101 0 186 -49.5t134.5 -134t49.5 -185.5q0 -100 -49.5 -184.5t-134.5 -134.5t-186 -50q-100 0 -184.5 50zM528 135q56 33 88 91t32 128q0 71 -32 128.5t-88 91t-126 33.5t-125.5 -33.5 t-87 -91t-31.5 -128.5q0 -70 31.5 -128t87 -91t125.5 -33t126 33zM362 780h-102l104 151h77l102 -151h-101l-40 86z" />
<glyph unicode="&#xd5;" horiz-adv-x="805" d="M217.5 35q-84.5 50 -134.5 134.5t-50 184.5q0 101 50 185.5t134.5 134t184.5 49.5q101 0 186 -49.5t134.5 -134t49.5 -185.5q0 -100 -49.5 -184.5t-134.5 -134.5t-186 -50q-100 0 -184.5 50zM528 135q56 33 88 91t32 128q0 71 -32 128.5t-88 91t-126 33.5t-125.5 -33.5 t-87 -91t-31.5 -128.5q0 -70 31.5 -128t87 -91t125.5 -33t126 33zM426 792q-18 7 -42 19q-14 7 -27 13t-24 6q-23 0 -40 -22l-81 54q22 33 54 49.5t68 16.5q23 -1 41 -7.5t41 -19.5q31 -18 49 -18q9 0 23.5 4.5t25.5 20.5l80 -56q-26 -36 -61.5 -51.5t-67.5 -15.5 q-21 0 -39 7z" />
<glyph unicode="&#xd6;" horiz-adv-x="805" d="M217.5 35q-84.5 50 -134.5 134.5t-50 184.5q0 101 50 185.5t134.5 134t184.5 49.5q101 0 186 -49.5t134.5 -134t49.5 -185.5q0 -100 -49.5 -184.5t-134.5 -134.5t-186 -50q-100 0 -184.5 50zM528 135q56 33 88 91t32 128q0 71 -32 128.5t-88 91t-126 33.5t-125.5 -33.5 t-87 -91t-31.5 -128.5q0 -70 31.5 -128t87 -91t125.5 -33t126 33zM279.5 800.5q-18.5 18.5 -18.5 43.5t18 42.5t44 17.5q25 0 43 -17.5t18 -42.5q0 -26 -18 -44t-43 -18t-43.5 18.5zM438 800q-18 18 -18 44q0 25 18 42.5t43 17.5q26 0 44 -17.5t18 -42.5t-18 -43.5 t-44 -18.5q-25 0 -43 18z" />
<glyph unicode="&#xd7;" horiz-adv-x="454" d="M227 263l-105 -104l-88 88l104 105l-104 104l88 89l105 -105l104 105l89 -89l-105 -104l105 -105l-89 -88z" />
<glyph unicode="&#xd8;" horiz-adv-x="805" d="M679 599q44 -50 68.5 -113t24.5 -132q0 -100 -49.5 -184.5t-134.5 -134.5t-186 -50q-110 0 -203 61l-46 -53l-70 67l43 50q-44 50 -68.5 112.5t-24.5 131.5q0 101 50 185.5t134.5 134t184.5 49.5q113 0 204 -61l46 53l70 -67zM205 201l324 372q-57 34 -127 34 t-125.5 -33.5t-87 -91t-31.5 -128.5q0 -87 47 -153zM528 135q56 33 88 91t32 128q0 89 -48 154l-323 -373q57 -33 125 -33q70 0 126 33z" />
<glyph unicode="&#xd9;" horiz-adv-x="685" d="M202.5 19.5q-62.5 34.5 -97.5 95t-35 135.5v459h125v-466q0 -64 40 -102t108 -38q67 0 107.5 38.5t40.5 101.5l-1 466h125v-459q0 -75 -35 -135.5t-97 -95t-140 -34.5t-140.5 34.5zM389 781h-94l-91 168h133z" />
<glyph unicode="&#xda;" horiz-adv-x="685" d="M202.5 19.5q-62.5 34.5 -97.5 95t-35 135.5v459h125v-466q0 -64 40 -102t108 -38q67 0 107.5 38.5t40.5 101.5l-1 466h125v-459q0 -75 -35 -135.5t-97 -95t-140 -34.5t-140.5 34.5zM390 781h-94l53 168h132z" />
<glyph unicode="&#xdb;" horiz-adv-x="685" d="M202.5 19.5q-62.5 34.5 -97.5 95t-35 135.5v459h125v-466q0 -64 40 -102t108 -38q67 0 107.5 38.5t40.5 101.5l-1 466h125v-459q0 -75 -35 -135.5t-97 -95t-140 -34.5t-140.5 34.5zM303 777h-102l104 151h77l102 -151h-101l-40 86z" />
<glyph unicode="&#xdc;" horiz-adv-x="685" d="M202.5 19.5q-62.5 34.5 -97.5 95t-35 135.5v459h125v-466q0 -64 40 -102t108 -38q67 0 107.5 38.5t40.5 101.5l-1 466h125v-459q0 -75 -35 -135.5t-97 -95t-140 -34.5t-140.5 34.5zM219.5 797.5q-18.5 18.5 -18.5 43.5t18 42.5t44 17.5q25 0 43 -17.5t18 -42.5 q0 -26 -18 -44t-43 -18t-43.5 18.5zM378 797q-18 18 -18 44q0 25 18 42.5t43 17.5q26 0 44 -17.5t18 -42.5t-18 -43.5t-44 -18.5q-25 0 -43 18z" />
<glyph unicode="&#xdd;" horiz-adv-x="597" d="M236 0v279l-240 430h142l151 -274q3 -6 4.5 -11.5t3.5 -9.5h3q3 11 9 21l151 274h141l-240 -430v-279h-125zM346 784h-94l53 168h132z" />
<glyph unicode="&#xde;" horiz-adv-x="576" d="M305 592q72 0 128.5 -28.5t88.5 -81t32 -120.5q0 -67 -32 -119.5t-88.5 -81t-128.5 -28.5h-96v-133h-125v709h125v-117h96zM305 251q57 0 91 30t34 81t-34 82.5t-91 31.5h-96v-225h96z" />
<glyph unicode="&#xdf;" horiz-adv-x="533" d="M63 553q2 51 25.5 89.5t63.5 60t89 21.5q48 0 88.5 -23.5t64.5 -63.5t24 -88q0 -29 -12.5 -57.5t-34.5 -46.5q58 -25 93.5 -76t35.5 -118q0 -69 -33 -126.5t-90.5 -91t-127.5 -33.5v118q55 1 90.5 37.5t35.5 96.5q0 53 -36 87t-87 34h-18v109h13q22 0 41 19.5t19 47.5 t-19 46.5t-44 18.5q-27 0 -45.5 -18.5t-18.5 -48.5v-547h-117v553z" />
<glyph unicode="&#xe0;" horiz-adv-x="700" d="M157.5 24q-62.5 39 -98 106t-35.5 147t35.5 147t98 106t139.5 39q71 0 126.5 -34.5t82.5 -91.5h4v110h122v-553h-122v108h-4q-68 -123 -209 -123q-77 0 -139.5 39zM410.5 125.5q38.5 22.5 60 62.5t21.5 89q0 50 -21.5 89.5t-60 62t-87.5 22.5t-87 -22.5t-59 -62 t-21 -89.5q0 -49 21 -89t59 -62.5t87 -22.5t87.5 22.5zM397 628h-94l-91 168h133z" />
<glyph unicode="&#xe1;" horiz-adv-x="700" d="M157.5 24q-62.5 39 -98 106t-35.5 147t35.5 147t98 106t139.5 39q71 0 126.5 -34.5t82.5 -91.5h4v110h122v-553h-122v108h-4q-68 -123 -209 -123q-77 0 -139.5 39zM410.5 125.5q38.5 22.5 60 62.5t21.5 89q0 50 -21.5 89.5t-60 62t-87.5 22.5t-87 -22.5t-59 -62 t-21 -89.5q0 -49 21 -89t59 -62.5t87 -22.5t87.5 22.5zM398 628h-94l53 168h132z" />
<glyph unicode="&#xe2;" horiz-adv-x="700" d="M157.5 24q-62.5 39 -98 106t-35.5 147t35.5 147t98 106t139.5 39q71 0 126.5 -34.5t82.5 -91.5h4v110h122v-553h-122v108h-4q-68 -123 -209 -123q-77 0 -139.5 39zM410.5 125.5q38.5 22.5 60 62.5t21.5 89q0 50 -21.5 89.5t-60 62t-87.5 22.5t-87 -22.5t-59 -62 t-21 -89.5q0 -49 21 -89t59 -62.5t87 -22.5t87.5 22.5zM311 624h-102l104 151h77l102 -151h-101l-40 86z" />
<glyph unicode="&#xe3;" horiz-adv-x="700" d="M157.5 24q-62.5 39 -98 106t-35.5 147t35.5 147t98 106t139.5 39q71 0 126.5 -34.5t82.5 -91.5h4v110h122v-553h-122v108h-4q-68 -123 -209 -123q-77 0 -139.5 39zM410.5 125.5q38.5 22.5 60 62.5t21.5 89q0 50 -21.5 89.5t-60 62t-87.5 22.5t-87 -22.5t-59 -62 t-21 -89.5q0 -49 21 -89t59 -62.5t87 -22.5t87.5 22.5zM374 636q-18 7 -42 19q-14 7 -27 13t-24 6q-23 0 -40 -22l-81 54q22 33 54 49.5t68 16.5q23 -1 41 -7.5t41 -19.5q31 -18 49 -18q9 0 23.5 4.5t25.5 20.5l80 -56q-26 -36 -61.5 -51.5t-67.5 -15.5q-21 0 -39 7z" />
<glyph unicode="&#xe4;" horiz-adv-x="700" d="M157.5 24q-62.5 39 -98 106t-35.5 147t35.5 147t98 106t139.5 39q71 0 126.5 -34.5t82.5 -91.5h4v110h122v-553h-122v108h-4q-68 -123 -209 -123q-77 0 -139.5 39zM410.5 125.5q38.5 22.5 60 62.5t21.5 89q0 50 -21.5 89.5t-60 62t-87.5 22.5t-87 -22.5t-59 -62 t-21 -89.5q0 -49 21 -89t59 -62.5t87 -22.5t87.5 22.5zM227.5 644.5q-18.5 18.5 -18.5 43.5t18 42.5t44 17.5q25 0 43 -17.5t18 -42.5q0 -26 -18 -44t-43 -18t-43.5 18.5zM386 644q-18 18 -18 44q0 25 18 42.5t43 17.5q26 0 44 -17.5t18 -42.5t-18 -43.5t-44 -18.5 q-25 0 -43 18z" />
<glyph unicode="&#xe5;" horiz-adv-x="700" d="M157.5 24q-62.5 39 -98 106t-35.5 147t35.5 147t98 106t139.5 39q71 0 126.5 -34.5t82.5 -91.5h4v110h122v-553h-122v108h-4q-68 -123 -209 -123q-77 0 -139.5 39zM410.5 125.5q38.5 22.5 60 62.5t21.5 89q0 50 -21.5 89.5t-60 62t-87.5 22.5t-87 -22.5t-59 -62 t-21 -89.5q0 -49 21 -89t59 -62.5t87 -22.5t87.5 22.5zM270.5 635q-33.5 33 -33.5 80t33.5 80.5t80.5 33.5q46 0 79.5 -33.5t33.5 -80.5t-33 -80t-80 -33t-80.5 33zM387 678q15 15 15 37q0 21 -15 36t-36 15q-22 0 -37 -15t-15 -36q0 -22 15 -37t37 -15q21 0 36 15z" />
<glyph unicode="&#xe6;" horiz-adv-x="1167" d="M1140 235h-464q10 -58 57.5 -95.5t110.5 -37.5q50 0 89 23t58 64h138q-29 -91 -102.5 -147.5t-170.5 -56.5q-81 0 -137.5 36t-86.5 99v-120h-122v108h-1q-35 -63 -92 -93t-127 -30q-74 0 -135 39t-96 106t-35 147t35 147t96 106t135 39q73 0 132.5 -35t86.5 -91h1v110 h122v-117q30 62 86.5 97t137.5 35q80 0 145.5 -38.5t103.5 -105.5t38 -149q0 -17 -3 -40zM410.5 125.5q38.5 22.5 60 62.5t21.5 89q0 50 -21.5 89.5t-60 62t-87.5 22.5t-87.5 -22.5t-60.5 -62.5t-22 -89t22 -88.5t60.5 -62.5t87.5 -23t87.5 22.5zM1005 330q-8 51 -54 86 t-110 35q-66 0 -111 -34t-52 -87h327z" />
<glyph unicode="&#xe7;" horiz-adv-x="535" d="M445 153l81 -82q-38 -39 -87.5 -61t-105.5 -25q43 -18 43 -71q0 -50 -31.5 -70.5t-89.5 -20.5v70q44 0 44 36q0 14 -11 23.5t-30 9.5v29q-67 14 -120 55.5t-83.5 102t-30.5 130.5q0 80 39.5 147t107.5 106.5t148 39.5q62 0 117.5 -24.5t96.5 -67.5l-81 -83q-24 27 -58 42 t-75 15q-46 0 -85 -23t-61.5 -63t-22.5 -89t22.5 -89.5t61.5 -63.5t85 -23q76 0 126 50z" />
<glyph unicode="&#xe8;" horiz-adv-x="650" d="M173 24.5q-69 39.5 -109 107t-40 147.5t40 146t109 104.5t152 38.5t152 -38.5t109 -105.5t40 -149q0 -20 -4 -40h-464q11 -57 58.5 -95t110.5 -38q50 0 89 22.5t58 64.5h138q-30 -91 -107.5 -147.5t-179.5 -56.5q-83 0 -152 39.5zM487 330q-8 51 -54 86t-110 35 q-66 0 -111 -34t-52 -87h327zM370 628h-94l-91 168h133z" />
<glyph unicode="&#xe9;" horiz-adv-x="650" d="M173 24.5q-69 39.5 -109 107t-40 147.5t40 146t109 104.5t152 38.5t152 -38.5t109 -105.5t40 -149q0 -20 -4 -40h-464q11 -57 58.5 -95t110.5 -38q50 0 89 22.5t58 64.5h138q-30 -91 -107.5 -147.5t-179.5 -56.5q-83 0 -152 39.5zM487 330q-8 51 -54 86t-110 35 q-66 0 -111 -34t-52 -87h327zM371 628h-94l53 168h132z" />
<glyph unicode="&#xea;" horiz-adv-x="650" d="M173 24.5q-69 39.5 -109 107t-40 147.5t40 146t109 104.5t152 38.5t152 -38.5t109 -105.5t40 -149q0 -20 -4 -40h-464q11 -57 58.5 -95t110.5 -38q50 0 89 22.5t58 64.5h138q-30 -91 -107.5 -147.5t-179.5 -56.5q-83 0 -152 39.5zM487 330q-8 51 -54 86t-110 35 q-66 0 -111 -34t-52 -87h327zM284 624h-102l104 151h77l102 -151h-101l-40 86z" />
<glyph unicode="&#xeb;" horiz-adv-x="650" d="M173 24.5q-69 39.5 -109 107t-40 147.5t40 146t109 104.5t152 38.5t152 -38.5t109 -105.5t40 -149q0 -20 -4 -40h-464q11 -57 58.5 -95t110.5 -38q50 0 89 22.5t58 64.5h138q-30 -91 -107.5 -147.5t-179.5 -56.5q-83 0 -152 39.5zM487 330q-8 51 -54 86t-110 35 q-66 0 -111 -34t-52 -87h327zM200.5 644.5q-18.5 18.5 -18.5 43.5t18 42.5t44 17.5q25 0 43 -17.5t18 -42.5q0 -26 -18 -44t-43 -18t-43.5 18.5zM359 644q-18 18 -18 44q0 25 18 42.5t43 17.5q26 0 44 -17.5t18 -42.5t-18 -43.5t-44 -18.5q-25 0 -43 18z" />
<glyph unicode="&#xec;" horiz-adv-x="261" d="M193 1h-126v552h126v-552zM176 628h-94l-91 168h133z" />
<glyph unicode="&#xed;" horiz-adv-x="261" d="M193 1h-126v552h126v-552zM177 628h-94l53 168h132z" />
<glyph unicode="&#xee;" horiz-adv-x="261" d="M193 1h-126v552h126v-552zM90 624h-102l104 151h77l102 -151h-101l-40 86z" />
<glyph unicode="&#xef;" horiz-adv-x="261" d="M193 1h-126v552h126v-552zM6.5 644.5q-18.5 18.5 -18.5 43.5t18 42.5t44 17.5q25 0 43 -17.5t18 -42.5q0 -26 -18 -44t-43 -18t-43.5 18.5zM165 644q-18 18 -18 44q0 25 18 42.5t43 17.5q26 0 44 -17.5t18 -42.5t-18 -43.5t-44 -18.5q-25 0 -43 18z" />
<glyph unicode="&#xf0;" horiz-adv-x="556" d="M493 381q41 -67 41 -140q0 -69 -34.5 -128t-93.5 -93.5t-128 -34.5q-68 0 -127.5 34.5t-94.5 93t-35 127.5q0 62 28.5 117t78.5 88.5t111 33.5q29 0 50 -11l2 4l-47 71l-69 -24l-54 78l70 24l-58 88h148l30 -46l62 21l54 -78l-65 -22zM344 127.5q30 17.5 47.5 48 t17.5 65.5q0 36 -17.5 66t-47.5 48t-66 18q-35 0 -65.5 -18t-48.5 -48.5t-18 -65.5t18 -65.5t48.5 -48t65.5 -17.5q36 0 66 17.5z" />
<glyph unicode="&#xf1;" horiz-adv-x="634" d="M191 0h-124v553h499v-553h-124v436h-251v-436zM505 639h-375v90h375v-90z" />
<glyph unicode="&#xf2;" horiz-adv-x="637" d="M170.5 24.5q-67.5 39.5 -107 106.5t-39.5 145q0 80 39.5 147t107 105.5t147.5 38.5t147.5 -38.5t107 -105.5t39.5 -147q0 -78 -39.5 -145t-107 -106.5t-147.5 -39.5t-147.5 39.5zM404 125q39 22 61.5 61.5t22.5 89.5q0 52 -22.5 91.5t-61.5 60.5t-86 21t-85 -21 t-60.5 -60.5t-22.5 -91.5q0 -50 22.5 -89.5t61 -61.5t84.5 -22q47 0 86 22zM365 628h-94l-91 168h133z" />
<glyph unicode="&#xf3;" horiz-adv-x="637" d="M170.5 24.5q-67.5 39.5 -107 106.5t-39.5 145q0 80 39.5 147t107 105.5t147.5 38.5t147.5 -38.5t107 -105.5t39.5 -147q0 -78 -39.5 -145t-107 -106.5t-147.5 -39.5t-147.5 39.5zM404 125q39 22 61.5 61.5t22.5 89.5q0 52 -22.5 91.5t-61.5 60.5t-86 21t-85 -21 t-60.5 -60.5t-22.5 -91.5q0 -50 22.5 -89.5t61 -61.5t84.5 -22q47 0 86 22zM365 628h-94l53 168h132z" />
<glyph unicode="&#xf4;" horiz-adv-x="637" d="M170.5 24.5q-67.5 39.5 -107 106.5t-39.5 145q0 80 39.5 147t107 105.5t147.5 38.5t147.5 -38.5t107 -105.5t39.5 -147q0 -78 -39.5 -145t-107 -106.5t-147.5 -39.5t-147.5 39.5zM404 125q39 22 61.5 61.5t22.5 89.5q0 52 -22.5 91.5t-61.5 60.5t-86 21t-85 -21 t-60.5 -60.5t-22.5 -91.5q0 -50 22.5 -89.5t61 -61.5t84.5 -22q47 0 86 22zM278 624h-102l104 151h77l102 -151h-101l-40 86z" />
<glyph unicode="&#xf5;" horiz-adv-x="637" d="M170.5 24.5q-67.5 39.5 -107 106.5t-39.5 145q0 80 39.5 147t107 105.5t147.5 38.5t147.5 -38.5t107 -105.5t39.5 -147q0 -78 -39.5 -145t-107 -106.5t-147.5 -39.5t-147.5 39.5zM404 125q39 22 61.5 61.5t22.5 89.5q0 52 -22.5 91.5t-61.5 60.5t-86 21t-85 -21 t-60.5 -60.5t-22.5 -91.5q0 -50 22.5 -89.5t61 -61.5t84.5 -22q47 0 86 22zM342 636q-18 7 -42 19q-14 7 -27 13t-24 6q-23 0 -40 -22l-81 54q22 33 54 49.5t68 16.5q23 -1 41 -7.5t41 -19.5q31 -18 49 -18q9 0 23.5 4.5t25.5 20.5l80 -56q-26 -36 -61.5 -51.5t-67.5 -15.5 q-21 0 -39 7z" />
<glyph unicode="&#xf6;" horiz-adv-x="637" d="M170.5 24.5q-67.5 39.5 -107 106.5t-39.5 145q0 80 39.5 147t107 105.5t147.5 38.5t147.5 -38.5t107 -105.5t39.5 -147q0 -78 -39.5 -145t-107 -106.5t-147.5 -39.5t-147.5 39.5zM404 125q39 22 61.5 61.5t22.5 89.5q0 52 -22.5 91.5t-61.5 60.5t-86 21t-85 -21 t-60.5 -60.5t-22.5 -91.5q0 -50 22.5 -89.5t61 -61.5t84.5 -22q47 0 86 22zM195.5 644.5q-18.5 18.5 -18.5 43.5t18 42.5t44 17.5q25 0 43 -17.5t18 -42.5q0 -26 -18 -44t-43 -18t-43.5 18.5zM354 644q-18 18 -18 44q0 25 18 42.5t43 17.5q26 0 44 -17.5t18 -42.5t-18 -43.5 t-44 -18.5q-25 0 -43 18z" />
<glyph unicode="&#xf7;" horiz-adv-x="489" d="M197.5 494.5q-21.5 21.5 -21.5 50.5q0 30 21.5 51t50.5 21q30 0 51.5 -21t21.5 -51q0 -29 -21.5 -50.5t-51.5 -21.5q-29 0 -50.5 21.5zM455 297h-421v111h421v-111zM197.5 99q-21.5 21 -21.5 51t21.5 51t50.5 21q30 0 51.5 -21t21.5 -51t-21.5 -51t-51.5 -21 q-29 0 -50.5 21z" />
<glyph unicode="&#xf8;" horiz-adv-x="637" d="M556 448q56 -77 56 -172q0 -78 -39.5 -145t-107 -106.5t-147.5 -39.5q-93 0 -167 52l-38 -38l-69 68l37 38q-57 76 -57 171q0 80 39.5 147t107 105.5t147.5 38.5q94 0 168 -52l38 38l68 -68zM163 187l245 248q-41 22 -90 22q-51 0 -91 -23.5t-62.5 -64.5t-22.5 -93 q0 -50 21 -89zM410 119q41 24 63.5 65.5t22.5 91.5q0 51 -21 90l-245 -249q39 -22 88 -22q51 0 92 24z" />
<glyph unicode="&#xf9;" horiz-adv-x="581" d="M169 14q-54 29 -84.5 81.5t-30.5 119.5v338h124v-345q0 -51 31 -78.5t82 -27.5q52 0 81.5 28.5t29.5 77.5v345h126v-338q0 -67 -30.5 -119.5t-84.5 -81.5t-122 -29t-122 29zM337 628h-94l-91 168h133z" />
<glyph unicode="&#xfa;" horiz-adv-x="581" d="M169 14q-54 29 -84.5 81.5t-30.5 119.5v338h124v-345q0 -51 31 -78.5t82 -27.5q52 0 81.5 28.5t29.5 77.5v345h126v-338q0 -67 -30.5 -119.5t-84.5 -81.5t-122 -29t-122 29zM338 628h-94l53 168h132z" />
<glyph unicode="&#xfb;" horiz-adv-x="581" d="M169 14q-54 29 -84.5 81.5t-30.5 119.5v338h124v-345q0 -51 31 -78.5t82 -27.5q52 0 81.5 28.5t29.5 77.5v345h126v-338q0 -67 -30.5 -119.5t-84.5 -81.5t-122 -29t-122 29zM250 624h-102l104 151h77l102 -151h-101l-40 86z" />
<glyph unicode="&#xfc;" horiz-adv-x="581" d="M169 14q-54 29 -84.5 81.5t-30.5 119.5v338h124v-345q0 -51 31 -78.5t82 -27.5q52 0 81.5 28.5t29.5 77.5v345h126v-338q0 -67 -30.5 -119.5t-84.5 -81.5t-122 -29t-122 29zM167.5 644.5q-18.5 18.5 -18.5 43.5t18 42.5t44 17.5q25 0 43 -17.5t18 -42.5q0 -26 -18 -44 t-43 -18t-43.5 18.5zM326 644q-18 18 -18 44q0 25 18 42.5t43 17.5q26 0 44 -17.5t18 -42.5t-18 -43.5t-44 -18.5q-25 0 -43 18z" />
<glyph unicode="&#xfd;" horiz-adv-x="547" d="M233 -158h-137l116 241l-219 470h136l153 -326l136 326h136zM320 628h-94l53 168h132z" />
<glyph unicode="&#xfe;" horiz-adv-x="701" d="M67 -158v867h126v-268h4q26 58 83.5 92.5t128.5 34.5q74 0 135 -39t96 -106t35 -147t-35 -147t-96 -106t-135 -39q-141 0 -212 122h-4v-264h-126zM461.5 123.5q38.5 21.5 61.5 61t23 91.5t-23 91.5t-61.5 61t-85.5 21.5q-46 0 -84.5 -21.5t-61 -61t-22.5 -91.5 t22.5 -91.5t61 -61t84.5 -21.5q47 0 85.5 21.5z" />
<glyph unicode="&#xff;" horiz-adv-x="547" d="M233 -158h-137l116 241l-219 470h136l153 -326l136 326h136zM150.5 644.5q-18.5 18.5 -18.5 43.5t18 42.5t44 17.5q25 0 43 -17.5t18 -42.5q0 -26 -18 -44t-43 -18t-43.5 18.5zM309 644q-18 18 -18 44q0 25 18 42.5t43 17.5q26 0 44 -17.5t18 -42.5t-18 -43.5t-44 -18.5 q-25 0 -43 18z" />
<glyph unicode="&#x131;" horiz-adv-x="261" d="M193 1h-126v552h126v-552z" />
<glyph unicode="&#x152;" horiz-adv-x="1146" d="M1101 593h-328v-179h271v-117h-271v-180h328v-117h-453v115q-43 -61 -109 -95.5t-151 -34.5q-97 0 -178.5 47t-129 131.5t-47.5 190.5q0 107 47.5 191t128.5 131t179 47q85 0 151 -34t109 -95v115h453v-116zM523.5 135.5q54.5 33.5 86 91t31.5 127.5q0 71 -31.5 128.5 t-86 91t-121.5 33.5t-121.5 -33.5t-86.5 -91.5t-32 -128t32 -127.5t86.5 -91t121.5 -33.5t121.5 33.5z" />
<glyph unicode="&#x153;" horiz-adv-x="1120" d="M1092 232h-464q11 -56 58.5 -93t110.5 -37q50 0 89 22.5t58 64.5h138q-30 -91 -107.5 -147.5t-179.5 -56.5q-78 0 -140.5 35.5t-99.5 97.5q-38 -62 -99.5 -97.5t-137.5 -35.5q-80 0 -147.5 39.5t-107 106.5t-39.5 145q0 80 39.5 147t107 105.5t147.5 38.5q75 0 137 -35 t99 -95q37 61 99.5 96t141.5 35q83 0 152 -38.5t109 -105.5t40 -149q0 -22 -4 -43zM957 334q-9 48 -54.5 82.5t-109.5 34.5q-65 0 -110.5 -33.5t-52.5 -83.5h327zM404 125q39 22 61.5 61.5t22.5 89.5q0 52 -22.5 91.5t-61.5 60.5t-86 21t-85 -21t-60.5 -60.5t-22.5 -91.5 q0 -50 22.5 -89.5t61 -61.5t84.5 -22q47 0 86 22z" />
<glyph unicode="&#x178;" horiz-adv-x="597" d="M236 0v279l-240 430h142l151 -274q3 -6 4.5 -11.5t3.5 -9.5h3q3 11 9 21l151 274h141l-240 -430v-279h-125zM175.5 800.5q-18.5 18.5 -18.5 43.5t18 42.5t44 17.5q25 0 43 -17.5t18 -42.5q0 -26 -18 -44t-43 -18t-43.5 18.5zM334 800q-18 18 -18 44q0 25 18 42.5t43 17.5 q26 0 44 -17.5t18 -42.5t-18 -43.5t-44 -18.5q-25 0 -43 18z" />
<glyph unicode="&#x2c6;" horiz-adv-x="310" d="M115 624h-102l104 151h77l102 -151h-101l-40 86z" />
<glyph unicode="&#x2dc;" horiz-adv-x="408" d="M227 636q-18 7 -42 19q-14 7 -27 13t-24 6q-23 0 -40 -22l-81 54q22 33 54 49.5t68 16.5q23 -1 41 -7.5t41 -19.5q31 -18 49 -18q9 0 23.5 4.5t25.5 20.5l80 -56q-26 -36 -61.5 -51.5t-67.5 -15.5q-21 0 -39 7z" />
<glyph unicode="&#x300;" horiz-adv-x="0" d="M-13 628h-94l-91 168h133z" />
<glyph unicode="&#x301;" horiz-adv-x="0" d="M-104 628h-94l53 168h132z" />
<glyph unicode="&#x302;" horiz-adv-x="0" d="M-195 624h-102l104 151h77l102 -151h-101l-40 86z" />
<glyph unicode="&#x303;" horiz-adv-x="0" d="M-181 636q-18 7 -42 19q-14 7 -27 13t-24 6q-23 0 -40 -22l-81 54q22 33 54 49.5t68 16.5q23 -1 41 -7.5t41 -19.5q31 -18 49 -18q9 0 23.5 4.5t25.5 20.5l80 -56q-26 -36 -61.5 -51.5t-67.5 -15.5q-21 0 -39 7z" />
<glyph unicode="&#x304;" horiz-adv-x="0" d="M-13 639h-375v90h375v-90z" />
<glyph unicode="&#x308;" horiz-adv-x="0" d="M-276.5 644.5q-18.5 18.5 -18.5 43.5t18 42.5t44 17.5q25 0 43 -17.5t18 -42.5q0 -26 -18 -44t-43 -18t-43.5 18.5zM-118 644q-18 18 -18 44q0 25 18 42.5t43 17.5q26 0 44 -17.5t18 -42.5t-18 -43.5t-44 -18.5q-25 0 -43 18z" />
<glyph unicode="&#x30a;" horiz-adv-x="0" d="M-206.5 635q-33.5 33 -33.5 80t33.5 80.5t80.5 33.5q46 0 79.5 -33.5t33.5 -80.5t-33 -80t-80 -33t-80.5 33zM-90 678q15 15 15 37q0 21 -15 36t-36 15q-22 0 -37 -15t-15 -36q0 -22 15 -37t37 -15q21 0 36 15z" />
<glyph unicode="&#x2000;" horiz-adv-x="492" />
<glyph unicode="&#x2001;" horiz-adv-x="985" />
<glyph unicode="&#x2002;" horiz-adv-x="492" />
<glyph unicode="&#x2003;" horiz-adv-x="985" />
<glyph unicode="&#x2004;" horiz-adv-x="328" />
<glyph unicode="&#x2005;" horiz-adv-x="246" />
<glyph unicode="&#x2006;" horiz-adv-x="164" />
<glyph unicode="&#x2007;" horiz-adv-x="164" />
<glyph unicode="&#x2008;" horiz-adv-x="123" />
<glyph unicode="&#x2009;" horiz-adv-x="197" />
<glyph unicode="&#x200a;" horiz-adv-x="54" />
<glyph unicode="&#x2010;" horiz-adv-x="392" d="M362 215h-331v111h331v-111z" />
<glyph unicode="&#x2011;" horiz-adv-x="392" d="M362 215h-331v111h331v-111z" />
<glyph unicode="&#x2012;" horiz-adv-x="392" d="M362 215h-331v111h331v-111z" />
<glyph unicode="&#x2013;" horiz-adv-x="561" d="M527 215h-493v111h493v-111z" />
<glyph unicode="&#x2014;" horiz-adv-x="898" d="M865 215h-831v111h831v-111z" />
<glyph unicode="&#x2018;" horiz-adv-x="200" d="M142 611q14 -8 22 -23t8 -33q0 -30 -21 -51.5t-52 -21.5q-29 0 -50.5 21.5t-21.5 51.5q0 18 10 36l51 124h81z" />
<glyph unicode="&#x2019;" horiz-adv-x="200" d="M58 593q-14 8 -22 23t-8 33q0 30 21 51t52 21q29 0 50.5 -21t21.5 -51q0 -17 -10 -37l-51 -123h-81z" />
<glyph unicode="&#x201a;" horiz-adv-x="200" d="M58 -7q-14 8 -22 23t-8 33q0 30 21 51t52 21q29 0 50.5 -21t21.5 -51q0 -17 -10 -37l-51 -123h-81z" />
<glyph unicode="&#x201c;" horiz-adv-x="383" d="M142 609q14 -8 22 -23t8 -33q0 -30 -21 -51.5t-52 -21.5q-29 0 -50.5 21.5t-21.5 51.5q0 18 10 36l51 124h81zM325 609q14 -8 22 -23t8 -33q0 -30 -21.5 -51.5t-51.5 -21.5q-29 0 -50.5 21.5t-21.5 51.5q0 16 9 36l52 124h80z" />
<glyph unicode="&#x201d;" horiz-adv-x="383" d="M58 594q-14 8 -22 23t-8 33q0 30 21 51t52 21q29 0 50.5 -21t21.5 -51q0 -17 -10 -37l-51 -123h-81zM241 594q-14 8 -22 23t-8 33q0 30 21 51t52 21q29 0 50.5 -21t21.5 -51q0 -17 -10 -37l-51 -123h-81z" />
<glyph unicode="&#x201e;" horiz-adv-x="383" d="M58 -7q-14 8 -22 23t-8 33q0 30 21 51t52 21q29 0 50.5 -21t21.5 -51q0 -17 -10 -37l-51 -123h-81zM241 -7q-14 8 -22 23t-8 33q0 30 21 51t52 21q29 0 50.5 -21t21.5 -51q0 -17 -10 -37l-51 -123h-81z" />
<glyph unicode="&#x2022;" horiz-adv-x="328" d="M97 208.5q-36 21.5 -57.5 57.5t-21.5 78q0 43 21 79t57.5 57t78.5 21q43 0 79 -21t57.5 -57t21.5 -79q0 -42 -21.5 -78t-57.5 -57.5t-79 -21.5q-42 0 -78 21.5z" />
<glyph unicode="&#x2026;" horiz-adv-x="689" d="M538 9.5q-21 21.5 -21 50.5q0 30 21 51t51 21t51 -21t21 -51q0 -29 -21 -50.5t-51 -21.5t-51 21.5zM293 9.5q-21 21.5 -21 50.5q0 30 21 51t51 21t51 -21t21 -51q0 -29 -21 -50.5t-51 -21.5t-51 21.5zM48 9.5q-21 21.5 -21 50.5q0 30 21 51t51 21t51 -21t21 -51 q0 -29 -21 -50.5t-51 -21.5t-51 21.5z" />
<glyph unicode="&#x202f;" horiz-adv-x="197" />
<glyph unicode="&#x2039;" horiz-adv-x="276" d="M256 99h-141l-92 173l92 173h141l-102 -173z" />
<glyph unicode="&#x203a;" horiz-adv-x="276" d="M253 272l-92 -173h-141l102 173l-102 173h141z" />
<glyph unicode="&#x205f;" horiz-adv-x="246" />
<glyph unicode="&#x20ac;" horiz-adv-x="656" d="M298 19q-73 34 -125 94.5t-74 137.5h-86v82h70v23v13h-70v81h82q20 79 72.5 141.5t127 97.5t159.5 35q90 0 164 -38l-39 -112q-59 32 -125 32q-78 0 -139.5 -42t-82.5 -114h309l-27 -81h-306q-1 -4 -1 -13t2 -23h293l-27 -82h-242q23 -71 84 -109.5t137 -38.5 q55 0 101 21l38 -113q-64 -26 -139 -26q-83 0 -156 34z" />
<glyph unicode="&#x2122;" horiz-adv-x="825" d="M103 633h-93v76h277v-76h-93v-341h-91v341zM668 709h123v-417h-90v271h-2q-6 -24 -13 -44l-86 -227h-68l-85 227q-9 21 -14 44h-2v-271h-90v417h123l102 -289z" />
<glyph unicode="&#x25fc;" horiz-adv-x="555" d="M0 555h555v-555h-555v555z" />
</font>
</defs>
</svg>
